<svg width="24" height="24" viewBox="0 0 24 24" fill="none" xmlns="http://www.w3.org/2000/svg">
<path d="M0 4C0 1.79086 1.79086 0 4 0H20C22.2091 0 24 1.79086 24 4V20C24 22.2091 22.2091 24 20 24H4C1.79086 24 0 22.2091 0 20V4Z" fill="#2F0A28"/>
<path d="M8.4 6.00002C7.07452 6.00002 6 7.07453 6 8.40001H15.6C16.9255 8.40001 18 7.3255 18 6.00002H8.4Z" fill="white"/>
<path d="M18 15.6001H8.4V13.2H15.6C16.9255 13.2 18 12.1255 18 10.8H8.4C7.07452 10.8 6 11.8745 6 13.2V18.0001H8.38897C8.39265 18.0001 8.39632 18.0001 8.4 18.0001L15.6 18.0001C16.9255 18.0001 18 16.9256 18 15.6001Z" fill="white"/>
</svg>
